<?xml version="1.0" encoding="utf-8"?>
<!-- Generator: Adobe Illustrator 21.1.0, SVG Export Plug-In . SVG Version: 6.00 Build 0)  -->
<svg version="1.1" xmlns="http://www.w3.org/2000/svg" xmlns:xlink="http://www.w3.org/1999/xlink" x="0px" y="0px"
	 viewBox="0 0 300 300" style="enable-background:new 0 0 300 300;" xml:space="preserve">
<style type="text/css">
	.st0{fill:#FFFFFF;}
</style>
<g id="Слой_2">
	<path d="M88,281h23c0,0,16.5-46.5,72.5-46.5c39,0,60.5,46.5,60.5,46.5h35c0,0-12.5-65.5-81.5-73.5C109.3,204.9,88,281,88,281z"/>
</g>
<g id="Слой_3">
	<path d="M73.5,75.5c-17,8-20,9-38,16c-12,0-6.7-9.4-6.7-9.4s52.7-35.6,69.7-63.6c2,67,21,152,84,176c-58,1-95,56-95,56
		S113.5,143.5,73.5,75.5z"/>
</g>
<g id="Слой_4">
	<circle class="st0" cx="79.5" cy="49.5" r="4"/>
</g>
</svg>
